<?xml version="1.0" encoding="UTF-8"?>
<!DOCTYPE svg PUBLIC "-//W3C//DTD SVG 1.1//EN" "http://www.w3.org/Graphics/SVG/1.1/DTD/svg11.dtd">
<!-- Creator: CorelDRAW 2021 (64-Bit) -->
<svg xmlns="http://www.w3.org/2000/svg" xml:space="preserve" width="2.2in" height="0.5in" version="1.1" style="shape-rendering:geometricPrecision; text-rendering:geometricPrecision; image-rendering:optimizeQuality; fill-rule:evenodd; clip-rule:evenodd"
viewBox="0 0 2200 500"
 xmlns:xlink="http://www.w3.org/1999/xlink"
 xmlns:xodm="http://www.corel.com/coreldraw/odm/2003">
 <defs>
  <style type="text/css">
   <![CDATA[
    .str0 {stroke:black;stroke-width:3;stroke-linecap:round;stroke-linejoin:round;stroke-miterlimit:2.61313}
    .fil6 {fill:black}
    .fil5 {fill:black;fill-rule:nonzero}
    .fil3 {fill:url(#id0)}
    .fil2 {fill:url(#id1)}
    .fil4 {fill:url(#id2)}
    .fil1 {fill:url(#id3)}
    .fil0 {fill:url(#id4)}
   ]]>
  </style>
  <linearGradient id="id0" gradientUnits="userSpaceOnUse" x1="57.87" y1="257.06" x2="188.84" y2="272.21">
   <stop offset="0" style="stop-opacity:1; stop-color:#00338C"/>
   <stop offset="1" style="stop-opacity:1; stop-color:#00FFFB"/>
  </linearGradient>
  <linearGradient id="id1" gradientUnits="userSpaceOnUse" x1="43.39" y1="336.12" x2="177.61" y2="197.99">
   <stop offset="0" style="stop-opacity:1; stop-color:black"/>
   <stop offset="0.262745" style="stop-opacity:1; stop-color:#003662"/>
   <stop offset="0.470588" style="stop-opacity:1; stop-color:#006CC4"/>
   <stop offset="0.678431" style="stop-opacity:1; stop-color:#00B5DF"/>
   <stop offset="1" style="stop-opacity:1; stop-color:#00FFFB"/>
  </linearGradient>
  <linearGradient id="id2" gradientUnits="userSpaceOnUse" xlink:href="#id0" x1="203.11" y1="236.19" x2="162.59" y2="60.07">
  </linearGradient>
  <linearGradient id="id3" gradientUnits="userSpaceOnUse" xlink:href="#id1" x1="159.63" y1="74.2" x2="206.47" y2="510.17">
  </linearGradient>
  <linearGradient id="id4" gradientUnits="userSpaceOnUse" x1="199.73" y1="251.63" x2="13.93" y2="493.96">
   <stop offset="0" style="stop-opacity:1; stop-color:black"/>
   <stop offset="0.196078" style="stop-opacity:1; stop-color:#003662"/>
   <stop offset="0.380392" style="stop-opacity:1; stop-color:#006CC4"/>
   <stop offset="0.615686" style="stop-opacity:1; stop-color:#00B5DF"/>
   <stop offset="1" style="stop-opacity:1; stop-color:#00FFFB"/>
  </linearGradient>
 </defs>
 <g id="Layer_x0020_1">
  <metadata id="CorelCorpID_0Corel-Layer"/>
  <g id="_2228292528000">
   <g>
    <path class="fil0" d="M128.74 373.35c51.8,0 98.33,-44.85 104.41,-97.41l22.8 0 0 41.23 15.46 0 0 36.16c1.88,-0.76 3.76,-1.55 5.63,-2.35 30.37,-13.06 56.92,-30.09 78.3,-49.16 -17,91.24 -93.13,166.76 -188.05,166.76 -53.57,0 -107.15,0 -160.72,0l0 -61.75c0,-24.52 12.97,-33.48 34.62,-33.48 29.18,0 58.36,0 87.54,0z"/>
    <path class="fil1" d="M225.48 304.97c5.35,-12.74 8.35,-26.51 8.35,-40.63 -2.31,-59.32 -50.35,-104.57 -108.91,-104.57l-49.36 -28.14 231.92 0c28.87,32.98 48.67,77.18 51.5,130.45 5.22,60.26 -25.71,147.88 -114.42,188.9 21.7,-56.48 16.55,-108.02 -19.08,-146z"/>
    <g>
     <path class="fil2" d="M127.51 336.72c-38.69,0 -70.05,-31.36 -70.05,-70.05 0,-38.69 31.37,-70.05 70.05,-70.05 38.69,0 70.05,31.36 70.05,70.05 0,38.69 -31.36,70.05 -70.05,70.05z"/>
     <path class="fil3" d="M103.96 332.65c-27.1,-9.67 -46.5,-35.56 -46.5,-65.98 0,-38.69 31.37,-70.05 70.05,-70.05 26.71,0 49.93,14.95 61.74,36.94 -7.36,-2.63 -15.29,-4.06 -23.56,-4.06 -38.69,0 -70.05,31.36 -70.05,70.05 0,11.97 3.01,23.25 8.31,33.11z"/>
    </g>
    <path class="fil4" d="M110.32 159.98c-49.26,-6.66 -103.75,-40.37 -103.75,-95.23 53.57,0 107.15,0 160.72,0 94.92,0 171.05,75.52 188.05,166.76 -42.81,-38.19 -101.84,-64.06 -158.75,-71.25 -28.13,-3.39 -57.57,-0.28 -86.27,-0.28z"/>
   </g>
   <path class="fil5 str0" d="M902.05 364.88c0,3.64 -0.07,6.76 -0.3,9.28 -0.22,2.52 -0.59,4.75 -1.04,6.53 -0.37,1.86 -0.96,3.41 -1.71,4.75 -0.74,1.26 -1.85,2.75 -3.49,4.38 -1.56,1.63 -4.68,3.79 -9.2,6.39 -4.6,2.52 -10.17,5.05 -16.78,7.42 -6.61,2.3 -14.11,4.31 -22.57,5.87 -8.46,1.56 -17.67,2.37 -27.54,2.37 -19.22,0 -36.59,-2.97 -52.11,-8.91 -15.52,-5.94 -28.73,-14.85 -39.57,-26.65 -10.91,-11.8 -19.22,-26.5 -25.02,-44.24 -5.79,-17.67 -8.69,-38.23 -8.69,-61.69 0,-23.9 3.19,-45.13 9.57,-63.69 6.39,-18.56 15.3,-34.15 26.72,-46.77 11.43,-12.62 25.17,-22.12 41.2,-28.65 15.96,-6.53 33.63,-9.8 52.93,-9.8 7.79,0 15.29,0.67 22.57,2 7.27,1.26 13.95,2.97 20.11,5.12 6.16,2.08 11.66,4.53 16.63,7.28 4.9,2.82 8.39,5.2 10.32,7.13 1.93,2 3.26,3.64 4.01,4.9 0.74,1.34 1.33,2.97 1.71,4.98 0.44,2.08 0.81,4.45 1.04,7.2 0.22,2.74 0.3,6.09 0.3,10.17 0,4.3 -0.15,8.02 -0.44,11.06 -0.3,3.04 -0.82,5.49 -1.48,7.35 -0.74,1.85 -1.63,3.26 -2.6,4.08 -1.04,0.89 -2.23,1.33 -3.49,1.33 -2.15,0 -4.9,-1.26 -8.24,-3.78 -3.34,-2.52 -7.65,-5.35 -12.92,-8.46 -5.27,-3.12 -11.58,-5.94 -18.93,-8.46 -7.28,-2.52 -15.96,-3.79 -26.13,-3.79 -11.13,0 -21.08,2.3 -29.84,6.83 -8.76,4.6 -16.18,11.06 -22.34,19.52 -6.16,8.54 -10.84,18.78 -14.03,30.81 -3.19,11.95 -4.75,25.54 -4.75,40.6 0,16.48 1.71,30.81 5.12,42.91 3.42,12.02 8.24,22.05 14.55,29.84 6.24,7.8 13.88,13.66 22.79,17.44 8.91,3.86 18.93,5.79 30.07,5.79 10.09,0 18.85,-1.19 26.28,-3.56 7.35,-2.37 13.66,-5.05 18.93,-7.87 5.34,-2.89 9.65,-5.49 13.06,-7.79 3.41,-2.3 6.01,-3.49 7.94,-3.49 1.41,0 2.6,0.3 3.41,0.89 0.89,0.59 1.63,1.7 2.23,3.49 0.52,1.7 0.96,4.16 1.26,7.28 0.3,3.19 0.44,7.35 0.44,12.62zm283.1 35.19c0,1.56 -0.3,2.9 -0.89,4.01 -0.59,1.11 -1.93,2 -4.08,2.74 -2.22,0.67 -5.34,1.19 -9.57,1.48 -4.23,0.3 -9.95,0.44 -17.15,0.44 -6.09,0 -10.91,-0.15 -14.55,-0.44 -3.64,-0.3 -6.54,-0.81 -8.61,-1.63 -2.08,-0.81 -3.57,-1.78 -4.46,-3.04 -0.81,-1.26 -1.56,-2.74 -2.15,-4.45l-25.39 -63.02c-3.04,-7.13 -6.01,-13.51 -8.91,-19 -2.89,-5.57 -6.16,-10.17 -9.72,-13.88 -3.56,-3.71 -7.72,-6.46 -12.4,-8.39 -4.6,-1.86 -10.02,-2.82 -16.11,-2.82l-17.89 0 0 107.56c0,1.41 -0.44,2.75 -1.41,3.86 -0.97,1.19 -2.53,2.15 -4.68,2.89 -2.15,0.67 -5.05,1.26 -8.69,1.71 -3.56,0.44 -8.24,0.67 -13.81,0.67 -5.5,0 -10.1,-0.22 -13.81,-0.67 -3.71,-0.44 -6.61,-1.04 -8.76,-1.71 -2.15,-0.74 -3.71,-1.71 -4.53,-2.82 -0.89,-1.19 -1.33,-2.53 -1.33,-3.94l0 -255.66c0,-6.39 1.63,-10.99 4.9,-13.81 3.27,-2.82 7.28,-4.23 12.03,-4.23l72.9 0c7.35,0 13.51,0.15 18.26,0.44 4.75,0.3 9.13,0.67 13.07,1.04 11.28,1.63 21.45,4.38 30.51,8.31 9.06,3.86 16.78,8.98 23.09,15.29 6.31,6.31 11.13,13.73 14.48,22.35 3.34,8.61 4.97,18.48 4.97,29.69 0,9.35 -1.19,17.96 -3.56,25.69 -2.45,7.79 -5.94,14.7 -10.61,20.78 -4.6,6.09 -10.32,11.36 -17.15,15.81 -6.83,4.53 -14.62,8.09 -23.31,10.91 4.23,2 8.17,4.45 11.88,7.35 3.71,2.89 7.2,6.46 10.46,10.61 3.27,4.16 6.39,8.83 9.28,14.18 2.89,5.27 5.72,11.28 8.46,17.96l23.83 55.6c2.15,5.49 3.64,9.5 4.31,12.1 0.74,2.52 1.11,4.53 1.11,6.01zm-73.93 -191.15c0,-9.28 -2.08,-17.15 -6.31,-23.46 -4.23,-6.38 -11.13,-10.91 -20.71,-13.51 -2.89,-0.74 -6.16,-1.26 -9.87,-1.7 -3.71,-0.44 -8.83,-0.67 -15.37,-0.67l-25.69 0 0 79.72 29.17 0c8.17,0 15.22,-0.96 21.3,-2.97 6.16,-1.93 11.21,-4.68 15.29,-8.24 4.09,-3.49 7.13,-7.79 9.13,-12.69 2,-4.9 3.04,-10.39 3.04,-16.48zm315.46 176.01c0,4.23 -0.15,7.72 -0.52,10.61 -0.37,2.82 -0.89,5.12 -1.63,6.83 -0.74,1.78 -1.63,3.04 -2.74,3.86 -1.04,0.82 -2.3,1.19 -3.56,1.19l-141.19 0c-4.75,0 -8.76,-1.41 -12.03,-4.23 -3.26,-2.82 -4.9,-7.42 -4.9,-13.81l0 -245.41c0,-6.39 1.63,-10.99 4.9,-13.81 3.27,-2.82 7.28,-4.23 12.03,-4.23l140.52 0c1.26,0 2.45,0.37 3.49,1.11 0.96,0.74 1.85,2 2.6,3.79 0.67,1.85 1.26,4.16 1.63,6.98 0.37,2.89 0.52,6.46 0.52,10.84 0,4.08 -0.15,7.5 -0.52,10.39 -0.37,2.82 -0.89,5.12 -1.63,6.83 -0.74,1.78 -1.63,3.04 -2.6,3.86 -1.04,0.81 -2.23,1.19 -3.49,1.19l-100.44 0 0 68.59 84.63 0c1.33,0 2.52,0.37 3.56,1.19 1.11,0.82 2,2 2.74,3.71 0.74,1.63 1.26,3.86 1.63,6.76 0.37,2.82 0.52,6.24 0.52,10.24 0,4.23 -0.15,7.72 -0.52,10.46 -0.37,2.75 -0.89,4.98 -1.63,6.61 -0.74,1.7 -1.63,2.89 -2.74,3.56 -1.04,0.74 -2.23,1.11 -3.56,1.11l-84.63 0 0 79.28 101.11 0c1.33,0 2.52,0.37 3.56,1.19 1.11,0.82 2,2.08 2.74,3.86 0.74,1.71 1.26,4.01 1.63,6.83 0.37,2.89 0.52,6.38 0.52,10.61zm308.86 1.19c1.71,5.19 2.82,9.35 3.27,12.39 0.44,3.04 -0.15,5.35 -1.71,6.91 -1.63,1.48 -4.45,2.45 -8.54,2.82 -4.01,0.37 -9.65,0.52 -16.7,0.52 -7.43,0 -13.22,-0.07 -17.3,-0.3 -4.16,-0.22 -7.28,-0.67 -9.5,-1.33 -2.15,-0.67 -3.64,-1.56 -4.53,-2.75 -0.89,-1.11 -1.63,-2.67 -2.15,-4.53l-18.48 -56.57 -106.15 0 -17.74 55.01c-0.59,2.08 -1.34,3.78 -2.3,5.12 -0.89,1.41 -2.45,2.45 -4.53,3.26 -2.08,0.82 -5.05,1.34 -8.91,1.63 -3.86,0.3 -8.91,0.44 -15.14,0.44 -6.68,0 -11.88,-0.22 -15.67,-0.67 -3.78,-0.44 -6.38,-1.48 -7.79,-3.12 -1.48,-1.71 -2,-4.08 -1.56,-7.13 0.44,-3.04 1.56,-7.06 3.26,-12.18l86.7 -249.79c0.82,-2.45 1.86,-4.46 3.04,-5.94 1.11,-1.56 2.97,-2.67 5.5,-3.49 2.59,-0.81 6.09,-1.33 10.61,-1.56 4.45,-0.22 10.39,-0.3 17.81,-0.3 8.54,0 15.37,0.07 20.41,0.3 5.12,0.22 9.06,0.74 11.88,1.56 2.82,0.82 4.83,2 6.09,3.56 1.19,1.63 2.3,3.79 3.12,6.53l87 249.57zm-129.17 -206.67l-0.22 0 -39.2 119.74 78.98 0 -39.57 -119.74zm353.92 -30.07c0,4.23 -0.15,7.8 -0.52,10.84 -0.37,2.97 -0.89,5.35 -1.63,7.13 -0.74,1.86 -1.63,3.19 -2.74,4.01 -1.04,0.89 -2.3,1.33 -3.56,1.33l-70.37 0 0 226.93c0,1.41 -0.44,2.75 -1.41,3.94 -0.96,1.11 -2.52,2.07 -4.68,2.82 -2.15,0.67 -5.12,1.26 -8.83,1.71 -3.71,0.44 -8.31,0.67 -13.81,0.67 -5.49,0 -10.09,-0.22 -13.81,-0.67 -3.71,-0.44 -6.68,-1.04 -8.83,-1.71 -2.15,-0.74 -3.71,-1.71 -4.68,-2.82 -0.96,-1.19 -1.41,-2.53 -1.41,-3.94l0 -226.93 -70.37 0c-1.41,0 -2.67,-0.44 -3.71,-1.33 -0.97,-0.82 -1.86,-2.15 -2.6,-4.01 -0.67,-1.78 -1.26,-4.15 -1.63,-7.13 -0.37,-3.04 -0.52,-6.61 -0.52,-10.84 0,-4.3 0.15,-8.02 0.52,-11.06 0.37,-3.04 0.96,-5.49 1.63,-7.28 0.74,-1.85 1.63,-3.12 2.6,-3.93 1.04,-0.82 2.3,-1.19 3.71,-1.19l198.2 0c1.26,0 2.45,0.37 3.56,1.19 1.11,0.81 2,2.08 2.74,3.93 0.74,1.78 1.26,4.23 1.63,7.28 0.37,3.04 0.52,6.76 0.52,11.06zm233.14 235.54c0,4.23 -0.15,7.72 -0.52,10.61 -0.37,2.82 -0.89,5.12 -1.63,6.83 -0.74,1.78 -1.63,3.04 -2.74,3.86 -1.04,0.82 -2.3,1.19 -3.56,1.19l-141.19 0c-4.75,0 -8.76,-1.41 -12.03,-4.23 -3.26,-2.82 -4.9,-7.42 -4.9,-13.81l0 -245.41c0,-6.39 1.63,-10.99 4.9,-13.81 3.27,-2.82 7.28,-4.23 12.03,-4.23l140.52 0c1.26,0 2.45,0.37 3.49,1.11 0.96,0.74 1.85,2 2.6,3.79 0.67,1.85 1.26,4.16 1.63,6.98 0.37,2.89 0.52,6.46 0.52,10.84 0,4.08 -0.15,7.5 -0.52,10.39 -0.37,2.82 -0.89,5.12 -1.63,6.83 -0.74,1.78 -1.63,3.04 -2.6,3.86 -1.04,0.81 -2.23,1.19 -3.49,1.19l-100.44 0 0 68.59 84.63 0c1.33,0 2.52,0.37 3.56,1.19 1.11,0.82 2,2 2.74,3.71 0.74,1.63 1.26,3.86 1.63,6.76 0.37,2.82 0.52,6.24 0.52,10.24 0,4.23 -0.15,7.72 -0.52,10.46 -0.37,2.75 -0.89,4.98 -1.63,6.61 -0.74,1.7 -1.63,2.89 -2.74,3.56 -1.04,0.74 -2.23,1.11 -3.56,1.11l-84.63 0 0 79.28 101.11 0c1.33,0 2.52,0.37 3.56,1.19 1.11,0.82 2,2.08 2.74,3.86 0.74,1.71 1.26,4.01 1.63,6.83 0.37,2.89 0.52,6.38 0.52,10.61z"/>
   <path class="fil6" d="M464.78 251.78l124.02 0c8.19,0 14.89,6.7 14.89,14.89l0 0c0,8.19 -6.7,14.89 -14.89,14.89l-124.02 0c-8.19,0 -14.89,-6.7 -14.89,-14.89l0 -0c0,-8.19 6.7,-14.89 14.89,-14.89z"/>
  </g>
 </g>
</svg>
