<?xml version="1.0" encoding="UTF-8"?>
<!DOCTYPE svg PUBLIC "-//W3C//DTD SVG 1.1//EN" "http://www.w3.org/Graphics/SVG/1.1/DTD/svg11.dtd">
<!-- Creator: CorelDRAW 2021 (64-Bit) -->
<svg xmlns="http://www.w3.org/2000/svg" xml:space="preserve" width="2.2in" height="0.5in" version="1.1" style="shape-rendering:geometricPrecision; text-rendering:geometricPrecision; image-rendering:optimizeQuality; fill-rule:evenodd; clip-rule:evenodd"
viewBox="0 0 2200 500"
 xmlns:xlink="http://www.w3.org/1999/xlink"
 xmlns:xodm="http://www.corel.com/coreldraw/odm/2003">
 <defs>
  <style type="text/css">
   <![CDATA[
    .str0 {stroke:white;stroke-width:3;stroke-linecap:round;stroke-linejoin:round;stroke-miterlimit:2.61313}
    .fil6 {fill:white}
    .fil5 {fill:white;fill-rule:nonzero}
    .fil3 {fill:url(#id0)}
    .fil4 {fill:url(#id1)}
    .fil1 {fill:url(#id2)}
    .fil0 {fill:url(#id3)}
    .fil2 {fill:url(#id4)}
   ]]>
  </style>
  <linearGradient id="id0" gradientUnits="userSpaceOnUse" x1="83.93" y1="259.45" x2="186.69" y2="272.13">
   <stop offset="0" style="stop-opacity:1; stop-color:#00338C"/>
   <stop offset="1" style="stop-opacity:1; stop-color:#00FFFB"/>
  </linearGradient>
  <linearGradient id="id1" gradientUnits="userSpaceOnUse" xlink:href="#id0" x1="197.88" y1="241.98" x2="166.09" y2="94.54">
  </linearGradient>
  <linearGradient id="id2" gradientUnits="userSpaceOnUse" x1="163.76" y1="106.36" x2="200.52" y2="471.35">
   <stop offset="0" style="stop-opacity:1; stop-color:black"/>
   <stop offset="0.262745" style="stop-opacity:1; stop-color:#003662"/>
   <stop offset="0.470588" style="stop-opacity:1; stop-color:#006CC4"/>
   <stop offset="0.678431" style="stop-opacity:1; stop-color:#00B5DF"/>
   <stop offset="1" style="stop-opacity:1; stop-color:#00FFFB"/>
  </linearGradient>
  <linearGradient id="id3" gradientUnits="userSpaceOnUse" x1="195.22" y1="254.91" x2="49.45" y2="457.78">
   <stop offset="0" style="stop-opacity:1; stop-color:black"/>
   <stop offset="0.196078" style="stop-opacity:1; stop-color:#003662"/>
   <stop offset="0.380392" style="stop-opacity:1; stop-color:#006CC4"/>
   <stop offset="0.615686" style="stop-opacity:1; stop-color:#00B5DF"/>
   <stop offset="1" style="stop-opacity:1; stop-color:#00FFFB"/>
  </linearGradient>
  <linearGradient id="id4" gradientUnits="userSpaceOnUse" xlink:href="#id2" x1="69.05" y1="321.99" x2="181.39" y2="213.65">
  </linearGradient>
 </defs>
 <g id="Layer_x0020_1">
  <metadata id="CorelCorpID_0Corel-Layer"/>
  <g id="_2289002256272">
   <g>
    <path class="fil0" d="M139.53 356.81c40.64,0 77.15,-37.55 81.92,-81.55l17.89 0 0 34.52 12.13 0 0 30.27c1.47,-0.64 2.94,-1.3 4.42,-1.97 23.83,-10.93 44.66,-25.19 61.43,-41.15 -13.33,76.39 -73.06,139.61 -147.54,139.61 -42.03,0 -84.06,0 -126.09,0l0 -51.7c0,-20.53 10.17,-28.03 27.16,-28.03 22.89,0 45.79,0 68.68,0z"/>
    <path class="fil1" d="M215.43 299.56c4.2,-10.67 6.55,-22.2 6.55,-34.02 -1.81,-49.66 -39.51,-87.54 -85.45,-87.54l-38.73 -23.56 181.96 0c22.65,27.6 38.19,64.61 40.4,109.21 4.09,50.44 -20.17,123.8 -89.76,158.14 17.03,-47.28 12.98,-90.43 -14.97,-122.23z"/>
    <path class="fil2" d="M138.57 326.13c-30.35,0 -54.96,-26.26 -54.96,-58.64 0,-32.39 24.61,-58.64 54.96,-58.64 30.35,0 54.96,26.26 54.96,58.64 0,32.39 -24.61,58.64 -54.96,58.64z"/>
    <path class="fil3" d="M120.09 322.74c-21.26,-8.1 -36.48,-29.78 -36.48,-55.24 0,-32.39 24.61,-58.65 54.96,-58.65 20.95,0 39.17,12.52 48.44,30.93 -5.78,-2.2 -12,-3.4 -18.48,-3.4 -30.35,0 -54.96,26.26 -54.96,58.64 0,10.03 2.36,19.46 6.52,27.72z"/>
    <path class="fil4" d="M125.08 178.18c-38.65,-5.57 -81.39,-33.8 -81.39,-79.72 42.03,0 84.06,0 126.09,0 74.47,0 134.2,63.22 147.54,139.61 -33.59,-31.97 -79.9,-53.63 -124.55,-59.65 -22.07,-2.84 -45.17,-0.23 -67.69,-0.23z"/>
   </g>
   <path class="fil5 str0" d="M901.77 350.96c0,3.09 -0.06,5.74 -0.24,7.89 -0.18,2.15 -0.47,4.04 -0.83,5.55 -0.3,1.58 -0.77,2.9 -1.36,4.04 -0.59,1.07 -1.48,2.33 -2.78,3.72 -1.24,1.39 -3.72,3.22 -7.33,5.43 -3.66,2.15 -8.1,4.29 -13.36,6.31 -5.26,1.95 -11.23,3.66 -17.97,4.98 -6.74,1.32 -14.07,2.02 -21.94,2.02 -15.31,0 -29.15,-2.52 -41.51,-7.57 -12.36,-5.05 -22.88,-12.62 -31.52,-22.65 -8.69,-10.03 -15.31,-22.52 -19.92,-37.6 -4.61,-15.02 -6.92,-32.49 -6.92,-52.43 0,-20.32 2.54,-38.36 7.63,-54.13 5.08,-15.77 12.18,-29.02 21.28,-39.75 9.11,-10.72 20.05,-18.8 32.81,-24.35 12.72,-5.55 26.79,-8.33 42.16,-8.33 6.21,0 12.18,0.57 17.98,1.7 5.79,1.07 11.11,2.52 16.02,4.35 4.91,1.77 9.28,3.85 13.24,6.19 3.91,2.4 6.69,4.42 8.22,6.06 1.54,1.7 2.6,3.09 3.19,4.17 0.59,1.13 1.07,2.52 1.36,4.23 0.35,1.76 0.65,3.78 0.83,6.12 0.18,2.33 0.24,5.17 0.24,8.65 0,3.66 -0.12,6.81 -0.35,9.4 -0.24,2.59 -0.65,4.67 -1.19,6.25 -0.59,1.57 -1.3,2.78 -2.07,3.47 -0.83,0.76 -1.78,1.14 -2.78,1.14 -1.71,0 -3.9,-1.07 -6.56,-3.22 -2.66,-2.14 -6.09,-4.54 -10.29,-7.19 -4.2,-2.65 -9.22,-5.05 -15.07,-7.19 -5.8,-2.15 -12.71,-3.22 -20.81,-3.22 -8.87,0 -16.79,1.96 -23.77,5.81 -6.98,3.91 -12.89,9.4 -17.8,16.59 -4.91,7.26 -8.63,15.96 -11.18,26.19 -2.54,10.16 -3.78,21.7 -3.78,34.51 0,14 1.35,26.18 4.08,36.46 2.72,10.22 6.56,18.74 11.59,25.36 4.96,6.63 11.05,11.61 18.15,14.83 7.09,3.28 15.08,4.92 23.94,4.92 8.04,0 15.02,-1.01 20.93,-3.03 5.85,-2.02 10.88,-4.29 15.08,-6.69 4.26,-2.46 7.69,-4.67 10.41,-6.62 2.72,-1.96 4.79,-2.97 6.33,-2.97 1.12,0 2.07,0.25 2.72,0.76 0.71,0.5 1.3,1.45 1.78,2.96 0.41,1.45 0.77,3.53 1,6.18 0.24,2.71 0.35,6.25 0.35,10.73zm275.63 29.91c0,1.32 -0.24,2.46 -0.71,3.41 -0.47,0.94 -1.54,1.7 -3.25,2.33 -1.78,0.57 -4.26,1.01 -7.63,1.26 -3.37,0.25 -7.92,0.38 -13.66,0.38 -4.85,0 -8.69,-0.13 -11.59,-0.38 -2.9,-0.25 -5.2,-0.69 -6.86,-1.39 -1.66,-0.7 -2.84,-1.52 -3.55,-2.59 -0.65,-1.07 -1.24,-2.33 -1.71,-3.79l-20.22 -53.56c-2.43,-6.06 -4.79,-11.48 -7.09,-16.15 -2.31,-4.73 -4.91,-8.64 -7.75,-11.8 -2.84,-3.16 -6.15,-5.49 -9.87,-7.13 -3.67,-1.58 -7.98,-2.4 -12.83,-2.4l-14.25 0 0 91.42c0,1.2 -0.35,2.33 -1.13,3.28 -0.76,1.01 -2.01,1.83 -3.72,2.46 -1.72,0.57 -4.02,1.07 -6.92,1.45 -2.84,0.38 -6.56,0.57 -11,0.57 -4.37,0 -8.04,-0.19 -11,-0.57 -2.95,-0.38 -5.26,-0.88 -6.98,-1.45 -1.71,-0.63 -2.95,-1.45 -3.6,-2.4 -0.71,-1.01 -1.07,-2.15 -1.07,-3.35l0 -217.28c0,-5.43 1.3,-9.34 3.9,-11.74 2.6,-2.4 5.8,-3.59 9.58,-3.59l58.06 0c5.85,0 10.76,0.13 14.54,0.38 3.79,0.25 7.28,0.57 10.41,0.88 8.99,1.39 17.09,3.72 24.3,7.07 7.21,3.28 13.37,7.63 18.39,13 5.02,5.36 8.87,11.67 11.53,18.99 2.66,7.32 3.96,15.71 3.96,25.24 0,7.95 -0.94,15.27 -2.83,21.83 -1.95,6.63 -4.73,12.49 -8.46,17.67 -3.67,5.18 -8.22,9.65 -13.66,13.44 -5.44,3.85 -11.65,6.88 -18.57,9.28 3.37,1.7 6.51,3.78 9.46,6.24 2.96,2.46 5.74,5.49 8.33,9.02 2.6,3.53 5.09,7.51 7.39,12.05 2.31,4.48 4.56,9.59 6.74,15.27l18.98 47.25c1.72,4.67 2.9,8.08 3.43,10.28 0.59,2.15 0.89,3.85 0.89,5.11zm-58.89 -162.46c0,-7.89 -1.66,-14.57 -5.03,-19.94 -3.37,-5.43 -8.87,-9.28 -16.5,-11.48 -2.3,-0.63 -4.91,-1.07 -7.86,-1.45 -2.96,-0.38 -7.04,-0.57 -12.24,-0.57l-20.46 0 0 67.76 23.24 0c6.5,0 12.12,-0.82 16.96,-2.52 4.91,-1.64 8.93,-3.97 12.18,-7 3.25,-2.97 5.67,-6.63 7.27,-10.79 1.6,-4.16 2.43,-8.83 2.43,-14zm301.41 149.59c0,3.6 -0.12,6.56 -0.41,9.02 -0.3,2.4 -0.71,4.35 -1.3,5.8 -0.59,1.52 -1.3,2.59 -2.19,3.28 -0.83,0.69 -1.83,1.01 -2.83,1.01l-112.46 0c-3.78,0 -6.98,-1.2 -9.58,-3.59 -2.6,-2.4 -3.9,-6.31 -3.9,-11.74l0 -208.58c0,-5.43 1.3,-9.34 3.9,-11.74 2.6,-2.4 5.8,-3.59 9.58,-3.59l111.93 0c1,0 1.95,0.31 2.78,0.94 0.77,0.63 1.48,1.7 2.07,3.22 0.53,1.58 1,3.54 1.3,5.93 0.3,2.46 0.42,5.49 0.42,9.21 0,3.47 -0.12,6.37 -0.42,8.83 -0.3,2.4 -0.71,4.35 -1.3,5.8 -0.59,1.52 -1.3,2.59 -2.07,3.28 -0.82,0.7 -1.77,1.01 -2.78,1.01l-80 0 0 58.3 67.4 0c1.07,0 2.01,0.31 2.84,1.01 0.89,0.7 1.59,1.7 2.19,3.16 0.59,1.39 1,3.28 1.3,5.74 0.3,2.4 0.41,5.3 0.41,8.7 0,3.6 -0.12,6.56 -0.41,8.9 -0.3,2.33 -0.71,4.23 -1.3,5.61 -0.59,1.45 -1.3,2.46 -2.19,3.03 -0.83,0.63 -1.78,0.95 -2.84,0.95l-67.4 0 0 67.38 80.53 0c1.06,0 2.01,0.31 2.83,1.01 0.89,0.69 1.6,1.77 2.19,3.28 0.59,1.45 1.01,3.41 1.3,5.81 0.3,2.46 0.41,5.43 0.41,9.02zm296.15 1.01c1.35,4.42 2.24,7.95 2.6,10.54 0.35,2.59 -0.12,4.54 -1.36,5.87 -1.3,1.26 -3.54,2.08 -6.8,2.4 -3.19,0.31 -7.69,0.44 -13.3,0.44 -5.91,0 -10.53,-0.06 -13.78,-0.25 -3.31,-0.19 -5.8,-0.57 -7.57,-1.13 -1.71,-0.57 -2.89,-1.33 -3.6,-2.33 -0.71,-0.94 -1.3,-2.27 -1.72,-3.85l-14.72 -48.07 -84.55 0 -14.13 46.75c-0.47,1.77 -1.07,3.22 -1.83,4.35 -0.71,1.2 -1.95,2.08 -3.61,2.78 -1.65,0.69 -4.02,1.13 -7.09,1.39 -3.07,0.25 -7.09,0.38 -12.06,0.38 -5.32,0 -9.46,-0.19 -12.48,-0.57 -3.01,-0.38 -5.08,-1.26 -6.21,-2.65 -1.18,-1.45 -1.59,-3.47 -1.24,-6.06 0.35,-2.59 1.24,-6 2.6,-10.35l69.06 -212.3c0.65,-2.08 1.48,-3.79 2.42,-5.05 0.89,-1.33 2.37,-2.27 4.38,-2.96 2.07,-0.7 4.85,-1.14 8.46,-1.33 3.54,-0.19 8.28,-0.25 14.19,-0.25 6.8,0 12.24,0.06 16.26,0.25 4.08,0.19 7.21,0.63 9.46,1.33 2.25,0.69 3.84,1.7 4.85,3.03 0.94,1.39 1.83,3.22 2.48,5.55l69.3 212.11zm-102.88 -175.65l-0.18 0 -31.22 101.76 62.91 0 -31.51 -101.76zm332.03 -25.55c0,3.59 -0.12,6.62 -0.41,9.21 -0.3,2.52 -0.71,4.54 -1.3,6.06 -0.59,1.57 -1.3,2.71 -2.19,3.41 -0.83,0.76 -1.83,1.13 -2.84,1.13l-56.05 0 0 192.87c0,1.2 -0.35,2.33 -1.12,3.35 -0.77,0.94 -2.01,1.76 -3.72,2.4 -1.72,0.57 -4.08,1.07 -7.04,1.45 -2.95,0.38 -6.62,0.57 -11,0.57 -4.37,0 -8.04,-0.19 -11,-0.57 -2.96,-0.38 -5.32,-0.88 -7.04,-1.45 -1.72,-0.63 -2.96,-1.45 -3.73,-2.4 -0.77,-1.01 -1.12,-2.15 -1.12,-3.35l0 -192.87 -56.05 0c-1.13,0 -2.13,-0.38 -2.95,-1.13 -0.77,-0.69 -1.48,-1.83 -2.07,-3.41 -0.54,-1.52 -1.01,-3.54 -1.3,-6.06 -0.3,-2.59 -0.41,-5.61 -0.41,-9.21 0,-3.66 0.12,-6.81 0.41,-9.4 0.3,-2.59 0.77,-4.67 1.3,-6.19 0.59,-1.57 1.3,-2.65 2.07,-3.34 0.82,-0.69 1.83,-1.01 2.95,-1.01l157.87 0c1,0 1.95,0.31 2.84,1.01 0.89,0.69 1.6,1.77 2.19,3.34 0.59,1.52 1,3.6 1.3,6.19 0.3,2.59 0.41,5.74 0.41,9.4zm235.83 200.19c0,3.6 -0.12,6.56 -0.41,9.02 -0.3,2.4 -0.71,4.35 -1.3,5.8 -0.59,1.52 -1.3,2.59 -2.19,3.28 -0.83,0.69 -1.83,1.01 -2.84,1.01l-112.46 0c-3.78,0 -6.98,-1.2 -9.58,-3.59 -2.6,-2.4 -3.91,-6.31 -3.91,-11.74l0 -208.58c0,-5.43 1.3,-9.34 3.91,-11.74 2.6,-2.4 5.8,-3.59 9.58,-3.59l111.93 0c1,0 1.95,0.31 2.78,0.94 0.77,0.63 1.48,1.7 2.07,3.22 0.53,1.58 1,3.54 1.3,5.93 0.3,2.46 0.42,5.49 0.42,9.21 0,3.47 -0.12,6.37 -0.42,8.83 -0.29,2.4 -0.7,4.35 -1.3,5.8 -0.59,1.52 -1.3,2.59 -2.07,3.28 -0.83,0.7 -1.78,1.01 -2.78,1.01l-80 0 0 58.3 67.4 0c1.07,0 2.01,0.31 2.84,1.01 0.89,0.7 1.59,1.7 2.19,3.16 0.59,1.39 1,3.28 1.3,5.74 0.3,2.4 0.41,5.3 0.41,8.7 0,3.6 -0.12,6.56 -0.41,8.9 -0.3,2.33 -0.71,4.23 -1.3,5.61 -0.59,1.45 -1.3,2.46 -2.19,3.03 -0.83,0.63 -1.77,0.95 -2.84,0.95l-67.4 0 0 67.38 80.53 0c1.06,0 2.01,0.31 2.84,1.01 0.89,0.69 1.6,1.77 2.19,3.28 0.59,1.45 1,3.41 1.3,5.81 0.3,2.46 0.41,5.43 0.41,9.02z"/>
   <path class="fil6" d="M477.78 256.7l101.15 0c5.94,0 10.79,4.86 10.79,10.79l0 0c0,5.94 -4.85,10.79 -10.79,10.79l-101.15 0c-5.94,0 -10.79,-4.85 -10.79,-10.79l0 -0c0,-5.93 4.85,-10.79 10.79,-10.79z"/>
  </g>
 </g>
</svg>
