<?xml version="1.0" encoding="UTF-8"?>
<!DOCTYPE svg PUBLIC "-//W3C//DTD SVG 1.1//EN" "http://www.w3.org/Graphics/SVG/1.1/DTD/svg11.dtd">
<!-- Creator: CorelDRAW 2021 (64-Bit) -->
<svg xmlns="http://www.w3.org/2000/svg" xml:space="preserve" width="10in" height="10in" version="1.1" style="shape-rendering:geometricPrecision; text-rendering:geometricPrecision; image-rendering:optimizeQuality; fill-rule:evenodd; clip-rule:evenodd"
viewBox="0 0 10000 10000"
 xmlns:xlink="http://www.w3.org/1999/xlink"
 xmlns:xodm="http://www.corel.com/coreldraw/odm/2003">
 <defs>
  <style type="text/css">
   <![CDATA[
    .fil3 {fill:url(#id0)}
    .fil4 {fill:url(#id1)}
    .fil0 {fill:url(#id2)}
    .fil2 {fill:url(#id3)}
    .fil1 {fill:url(#id4)}
   ]]>
  </style>
  <linearGradient id="id0" gradientUnits="userSpaceOnUse" x1="2519.47" y1="4798.09" x2="5272.16" y2="5116.52">
   <stop offset="0" style="stop-opacity:1; stop-color:#00338C"/>
   <stop offset="1" style="stop-opacity:1; stop-color:#00FFFB"/>
  </linearGradient>
  <linearGradient id="id1" gradientUnits="userSpaceOnUse" xlink:href="#id0" x1="5571.87" y1="4359.47" x2="4720.27" y2="658.11">
  </linearGradient>
  <linearGradient id="id2" gradientUnits="userSpaceOnUse" x1="5500.88" y1="4684.07" x2="1595.99" y2="9776.92">
   <stop offset="0" style="stop-opacity:1; stop-color:black"/>
   <stop offset="0.196078" style="stop-opacity:1; stop-color:#003662"/>
   <stop offset="0.380392" style="stop-opacity:1; stop-color:#006CC4"/>
   <stop offset="0.615686" style="stop-opacity:1; stop-color:#00B5DF"/>
   <stop offset="1" style="stop-opacity:1; stop-color:#00FFFB"/>
  </linearGradient>
  <linearGradient id="id3" gradientUnits="userSpaceOnUse" x1="5751.15" y1="6443.3" x2="2930.27" y2="3540.38">
   <stop offset="0" style="stop-opacity:1; stop-color:black"/>
   <stop offset="0.262745" style="stop-opacity:1; stop-color:#003662"/>
   <stop offset="0.470588" style="stop-opacity:1; stop-color:#006CC4"/>
   <stop offset="0.678431" style="stop-opacity:1; stop-color:#00B5DF"/>
   <stop offset="1" style="stop-opacity:1; stop-color:#00FFFB"/>
  </linearGradient>
  <linearGradient id="id4" gradientUnits="userSpaceOnUse" xlink:href="#id3" x1="4658.17" y1="954.88" x2="5642.62" y2="10117.7">
  </linearGradient>
 </defs>
 <g id="Layer_x0020_1">
  <metadata id="CorelCorpID_0Corel-Layer"/>
  <path class="fil0" d="M4008.83 7242.13c1088.7,0 2066.52,-942.59 2194.47,-2047.15l479.19 0 0 866.59 324.97 0 0 759.89c39.46,-16.08 78.91,-32.54 118.33,-49.5 638.33,-274.54 1196.24,-632.4 1645.48,-1033.11 -357.28,1917.59 -1957.19,3504.71 -3952.13,3504.71 -1125.91,0 -2251.81,0 -3377.72,0l0 -1297.76c0,-515.45 272.59,-703.67 727.63,-703.67 613.26,0 1226.52,0 1839.78,0z"/>
  <path class="fil1" d="M6042.03 5804.98c112.44,-267.78 175.57,-557.22 175.57,-853.98 -48.48,-1246.72 -1058.33,-2197.77 -2289.02,-2197.77l-1037.44 -591.32 4874.19 0c606.79,693.02 1022.84,1622.04 1082.29,2741.59 109.67,1266.39 -540.28,3107.9 -2404.62,3969.99 456.13,-1187.06 347.81,-2270.3 -400.97,-3068.52z"/>
  <g id="_1190106389856">
   <circle class="fil2" cx="3983.1" cy="5000.01" r="1472.19"/>
   <path class="fil3" d="M3488.11 6386.81c-569.52,-203.3 -977.21,-747.44 -977.21,-1386.81 0,-813.04 659.17,-1472.21 1472.21,-1472.21 561.33,0 1049.27,314.27 1297.63,776.38 -154.73,-55.24 -321.33,-85.4 -495,-85.4 -813.04,0 -1472.21,659.17 -1472.21,1472.21 0,251.7 63.22,488.63 174.57,695.83z"/>
  </g>
  <path class="fil4" d="M3621.84 2757.87c-1035.37,-139.91 -2180.41,-848.45 -2180.41,-2001.44 1125.91,0 2251.81,0 3377.72,0 1994.94,0 3594.86,1587.12 3952.13,3504.71 -899.76,-802.56 -2140.39,-1346.34 -3336.32,-1497.5 -591.29,-71.3 -1209.89,-5.78 -1813.12,-5.78z"/>
 </g>
</svg>
